<?xml version="1.0" encoding="utf-8"?>
<!-- Svg Vector Icons : http://www.onlinewebfonts.com/icon -->
<!DOCTYPE svg PUBLIC "-//W3C//DTD SVG 1.1//EN" "http://www.w3.org/Graphics/SVG/1.1/DTD/svg11.dtd">
<svg version="1.1" xmlns="http://www.w3.org/2000/svg" xmlns:xlink="http://www.w3.org/1999/xlink" x="0px" y="0px" viewBox="0 0 1000 1000" enable-background="new 0 0 1000 1000" xml:space="preserve">
<metadata> Svg Vector Icons : http://www.onlinewebfonts.com/icon </metadata>
<g><g transform="translate(0.000000,511.000000) scale(0.100000,-0.100000)"><path d="M4576.9,4996.6c-1531.4-188.2-2778.1-1197.3-3255.6-2636.9c-287-863.3-261.1-1808.9,72.9-2655.7c108.2-275.3,376.4-816.3,550.4-1110.3c465.8-795.1,1009.1-1477.2,1797.2-2267.6c566.9-566.9,1230.2-1143.3,1282-1115c112.9,63.5,832.7,712.7,1235,1115c773.9,773.9,1286.7,1416.1,1766.6,2213.5c183.5,305.8,468.1,875,581,1164.4c364.6,926.8,359.9,1952.4-11.8,2888.6c-491.6,1232.6-1632.5,2150-2947.4,2371.1C5383.7,5006,4812.1,5024.8,4576.9,4996.6z M5600.1,3959.2c809.2-164.7,1545.5-712.7,1957.1-1456.1C7820.7,2028,7952.4,1381.1,7896,844.8c-75.3-708-343.4-1272.6-846.8-1778.3c-282.3-282.3-557.5-475.2-882.1-616.3c-908-390.5-1931.3-305.8-2754.6,228.2c-279.9,181.1-668.1,569.3-849.2,849.2c-635.1,976.2-630.4,2211.2,11.8,3194.4c138.8,211.7,465.8,559.9,670.4,712.8C3918.2,3942.7,4760.3,4128.6,5600.1,3959.2z"/><path d="M4915.6,3326.4c-374-49.4-790.4-409.3-908-781c-44.7-150.5-56.5-406.9-21.2-531.6c18.8-58.8,16.5-75.3-9.4-75.3c-65.9,0-112.9-110.6-96.4-230.5c21.2-164.7,108.2-407,164.7-463.4c28.2-28.2,70.6-120,94.1-202.3c21.2-82.3,77.6-216.4,120-298.7l82.3-145.8l-42.3-120l-40-122.3l-211.7-87c-214.1-87-543.4-199.9-792.7-270.5c-75.3-18.8-136.4-49.4-136.4-65.9c0-35.3,197.6-263.4,350.5-404.6c463.4-428.1,1143.2-649.2,1771.3-576.3c538.7,61.2,1016.2,291.7,1387.9,670.4c141.1,143.5,268.1,310.5,249.3,329.3c-4.7,7-155.2,54.1-331.7,105.8c-319.9,94.1-731.6,244.6-788,289.3c-16.5,11.8-44.7,77.6-65.9,148.2c-35.3,122.3-35.3,124.7,23.5,218.8c58.8,94.1,155.2,348.1,155.2,411.7c0,18.8,23.5,37.6,54.1,42.4c70.6,9.4,176.4,223.5,211.7,428.1c23.5,136.4,21.2,167-14.1,232.9c-32.9,63.5-35.3,96.4-16.5,216.4c32.9,207,28.2,456.3-11.8,595.1c-40,134.1-148.2,275.2-230.5,301.1c-28.2,9.4-91.7,61.2-138.8,115.3c-98.8,112.9-315.2,235.2-454,258.8C5092,3342.9,5059.1,3345.3,4915.6,3326.4z"/></g></g>
</svg>